<?xml version="1.0" encoding="UTF-8" standalone="no"?>
<!-- Created with Inkscape (http://www.inkscape.org/) -->

<svg
   width="600"
   height="600"
   viewBox="0 0 158.75 158.75"
   version="1.1"
   id="svg1"
   xml:space="preserve"
   xmlns="http://www.w3.org/2000/svg"
   xmlns:svg="http://www.w3.org/2000/svg"><defs
     id="defs1" /><g
     id="layer1"><path
       id="rect1"
       style="fill:#1a1a1a;stroke-width:0.373965"
       d="M 0.43629375,0.58884281 H 158.63864 V 158.60966 H 0.43629375 Z" /><g
       id="g1"
       transform="matrix(0.15411468,0,0,0.15411468,3.8800297,-0.8044941)"
       style="fill:#f9f9f9"><path
         d="m 512,301.2 m -10,0 a 10,10 0 1 0 20,0 10,10 0 1 0 -20,0 z"
         fill="#e73b37"
         id="path1"
         style="fill:#f9f9f9" /><path
         d="m 400.3,744.5 c 2.1,-0.7 4.1,-1.4 6.2,-2 -2,0.6 -4.1,1.3 -6.2,2 z m 0,0 c 2.1,-0.7 4.1,-1.4 6.2,-2 -2,0.6 -4.1,1.3 -6.2,2 z"
         fill="#39393a"
         id="path2"
         style="fill:#f9f9f9" /><path
         d="m 511.8,256.6 c 24.4,0 44.2,19.8 44.2,44.2 0,24.4 -19.8,44.2 -44.2,44.2 -24.4,0 -44.2,-19.8 -44.2,-44.2 0,-24.4 19.9,-44.2 44.2,-44.2 m 0,-20 c -35.5,0 -64.2,28.7 -64.2,64.2 0,35.5 28.7,64.2 64.2,64.2 35.5,0 64.2,-28.7 64.2,-64.2 0,-35.5 -28.7,-64.2 -64.2,-64.2 z"
         fill="#e73b37"
         id="path3"
         style="fill:#0066ff" /><path
         d="m 730.7,529.5 c 0.4,-8.7 0.6,-17.4 0.6,-26.2 C 731.3,323.7 645.2,164.2 512,63.8 378.9,164.2 292.8,323.7 292.8,503.3 c 0,8.8 0.2,17.5 0.6,26.1 -56,56 -90.6,133.3 -90.6,218.7 0,61.7 18,119.1 49.1,167.3 30.3,-49.8 74.7,-90.1 127.7,-115.3 39,-18.6 82.7,-29 128.8,-29 48.3,0 93.9,11.4 134.3,31.7 52.5,26.3 96.3,67.7 125.6,118.4 33.4,-49.4 52.9,-108.9 52.9,-173.1 0,-85.4 -34.6,-162.6 -90.5,-218.6 z M 351.1,383.4 c 9.2,-37.9 22.9,-74.7 40.6,-109.5 A 502.1,502.1 0 0 1 455.3,178 c 17.4,-20.6 36.4,-39.9 56.8,-57.5 20.4,17.6 39.4,36.9 56.8,57.5 24.8,29.5 46.2,61.8 63.6,95.9 17.7,34.8 31.4,71.6 40.6,109.5 8.7,35.8 13.5,72.7 14.2,109.9 C 637.4,459 577,438.9 512,438.9 c -65,0 -125.3,20.1 -175.1,54.4 0.7,-37.2 5.5,-74.1 14.2,-109.9 z m -90.6,449.2 c -9.1,-27 -13.7,-55.5 -13.7,-84.4 0,-35.8 7,-70.6 20.8,-103.2 8.4,-19.8 19,-38.4 31.9,-55.5 9.7,61.5 29.5,119.7 57.8,172.6 -36.4,17.8 -69,41.6 -96.8,70.5 z m 364.2,-85.3 c -0.7,-0.3 -1.5,-0.5 -2.2,-0.8 -0.4,-0.2 -0.9,-0.3 -1.3,-0.5 -0.6,-0.2 -1.3,-0.5 -1.9,-0.7 -0.8,-0.3 -1.5,-0.5 -2.3,-0.8 -0.8,-0.3 -1.5,-0.5 -2.3,-0.7 l -0.9,-0.3 c -1,-0.3 -2.1,-0.7 -3.1,-1 -1.2,-0.4 -2.4,-0.7 -3.5,-1.1 l -3,-0.9 c -0.2,-0.1 -0.4,-0.1 -0.7,-0.2 -1.1,-0.3 -2.3,-0.7 -3.4,-1 -1.2,-0.3 -2.4,-0.6 -3.5,-0.9 l -3.6,-0.9 -3.6,-0.9 c -1,-0.3 -2.1,-0.5 -3.1,-0.7 -1.2,-0.3 -2.4,-0.5 -3.6,-0.8 -1.3,-0.3 -2.5,-0.6 -3.8,-0.8 h -0.3 c -0.9,-0.2 -1.9,-0.4 -2.8,-0.6 -0.4,-0.1 -0.7,-0.1 -1.1,-0.2 -1.1,-0.2 -2.2,-0.4 -3.4,-0.6 -1.2,-0.2 -2.4,-0.4 -3.6,-0.7 l -5.4,-0.9 c -0.9,-0.1 -1.9,-0.3 -2.8,-0.4 -0.8,-0.1 -1.6,-0.3 -2.5,-0.4 -2.6,-0.4 -5.1,-0.7 -7.7,-1 -1.2,-0.1 -2.3,-0.3 -3.5,-0.4 h -0.4 c -0.9,-0.1 -1.8,-0.2 -2.8,-0.3 -1.1,-0.1 -2.1,-0.2 -3.2,-0.3 -1.7,-0.2 -3.4,-0.3 -5.1,-0.4 -0.8,-0.1 -1.5,-0.1 -2.3,-0.2 -0.9,-0.1 -1.9,-0.1 -2.8,-0.2 -0.4,0 -0.8,0 -1.2,-0.1 -1.1,-0.1 -2.1,-0.1 -3.2,-0.2 -0.5,0 -1,-0.1 -1.5,-0.1 -1.3,-0.1 -2.6,-0.1 -3.9,-0.1 -0.8,0 -1.5,-0.1 -2.3,-0.1 -1.2,0 -2.4,0 -3.5,-0.1 h -13.9 c -2.3,0 -4.6,0.1 -6.9,0.2 -0.9,0 -1.9,0.1 -2.8,0.1 -0.8,0 -1.5,0.1 -2.3,0.1 -1.4,0.1 -2.8,0.2 -4.1,0.3 -1.4,0.1 -2.7,0.2 -4.1,0.3 -1.4,0.1 -2.7,0.2 -4.1,0.4 -0.6,0 -1.2,0.1 -1.8,0.2 l -7.8,0.9 c -1.1,0.1 -2.1,0.3 -3.2,0.4 -1,0.1 -2.1,0.3 -3.1,0.4 -3.2,0.5 -6.4,0.9 -9.5,1.5 -0.7,0.1 -1.4,0.2 -2.1,0.4 -0.9,0.1 -1.7,0.3 -2.6,0.5 -1.1,0.2 -2.3,0.4 -3.4,0.6 -0.9,0.2 -1.7,0.3 -2.6,0.5 -0.4,0.1 -0.8,0.1 -1.1,0.2 -0.7,0.1 -1.4,0.3 -2.1,0.4 -1.2,0.3 -2.4,0.5 -3.6,0.8 -1.2,0.3 -2.4,0.5 -3.6,0.8 -0.2,0 -0.4,0.1 -0.6,0.1 -0.5,0.1 -1,0.2 -1.5,0.4 -1.1,0.3 -2.3,0.6 -3.5,0.9 -1.3,0.3 -2.5,0.6 -3.8,1 -0.4,0.1 -0.9,0.2 -1.4,0.4 -1.3,0.4 -2.7,0.7 -4,1.1 -1.5,0.4 -3,0.9 -4.6,1.3 -1,0.3 -2.1,0.6 -3.1,1 -2.1,0.6 -4.1,1.3 -6.2,2 -0.7,0.2 -1.4,0.5 -2.1,0.7 -15,-27.5 -27.4,-56.4 -37,-86.2 -11.7,-36.1 -19.2,-73.6 -22.5,-111.6 -0.6,-6.7 -1,-13.3 -1.3,-20 -0.1,-1.2 -0.1,-2.4 -0.1,-3.6 -0.1,-1.2 -0.1,-2.4 -0.1,-3.6 0,-1.2 -0.1,-2.4 -0.1,-3.6 0,-1.2 -0.1,-2.4 -0.1,-3.7 18.8,-14 39.2,-25.8 61,-35 36.1,-15.3 74.5,-23 114.1,-23 39.6,0 78,7.8 114.1,23 21.8,9.2 42.2,20.9 61,35 v 0.1 c 0,1 0,1.9 -0.1,2.9 0,1.4 -0.1,2.8 -0.1,4.3 0,0.7 0,1.3 -0.1,2 -0.1,1.8 -0.1,3.5 -0.2,5.3 -0.3,6.7 -0.8,13.3 -1.3,20 -3.3,38.5 -11,76.5 -23,113 -9.7,30.3 -22.3,59.4 -37.6,87.1 z m 136.8,90.9 A 342.27,342.27 0 0 0 665.2,765 c 29.1,-53.7 49.5,-112.8 59.4,-175.5 12.8,17.1 23.4,35.6 31.8,55.5 13.8,32.7 20.8,67.4 20.8,103.2 0,31 -5.3,61.3 -15.7,90 z"
         fill="#39393a"
         id="path4"
         style="fill:#f9f9f9" /><path
         d="m 512,819.3 c 8.7,0 24.7,22.9 24.7,60.4 0,37.5 -16,60.4 -24.7,60.4 -8.7,0 -24.7,-22.9 -24.7,-60.4 0,-37.5 16,-60.4 24.7,-60.4 m 0,-20 c -24.7,0 -44.7,36 -44.7,80.4 0,44.4 20,80.4 44.7,80.4 24.7,0 44.7,-36 44.7,-80.4 0,-44.4 -20,-80.4 -44.7,-80.4 z"
         fill="#e73b37"
         id="path5"
         style="fill:#0066ff" /></g></g></svg>
