<?xml version="1.0" encoding="UTF-8" standalone="no"?>
<!-- Created with Inkscape (http://www.inkscape.org/) -->

<svg
   width="600"
   height="600"
   viewBox="0 0 158.75 158.75"
   version="1.1"
   id="svg1"
   xml:space="preserve"
   xmlns="http://www.w3.org/2000/svg"
   xmlns:svg="http://www.w3.org/2000/svg"><defs
     id="defs1" /><g
     id="layer1"><g
       id="g1"
       transform="matrix(0.09966871,0,0,0.09966871,31.772385,7.6743357)"
       style="fill:#cccccc"><path
         d="m 512,301.2 m -10,0 a 10,10 0 1 0 20,0 10,10 0 1 0 -20,0 z"
         fill="#e73b37"
         id="path1"
         style="fill:#cccccc" /><path
         d="m 400.3,744.5 c 2.1,-0.7 4.1,-1.4 6.2,-2 -2,0.6 -4.1,1.3 -6.2,2 z m 0,0 c 2.1,-0.7 4.1,-1.4 6.2,-2 -2,0.6 -4.1,1.3 -6.2,2 z"
         fill="#39393a"
         id="path2"
         style="fill:#cccccc" /><path
         d="m 511.8,256.6 c 24.4,0 44.2,19.8 44.2,44.2 0,24.4 -19.8,44.2 -44.2,44.2 -24.4,0 -44.2,-19.8 -44.2,-44.2 0,-24.4 19.9,-44.2 44.2,-44.2 m 0,-20 c -35.5,0 -64.2,28.7 -64.2,64.2 0,35.5 28.7,64.2 64.2,64.2 35.5,0 64.2,-28.7 64.2,-64.2 0,-35.5 -28.7,-64.2 -64.2,-64.2 z"
         fill="#e73b37"
         id="path3"
         style="fill:#2a7fff" /><path
         d="m 730.7,529.5 c 0.4,-8.7 0.6,-17.4 0.6,-26.2 C 731.3,323.7 645.2,164.2 512,63.8 378.9,164.2 292.8,323.7 292.8,503.3 c 0,8.8 0.2,17.5 0.6,26.1 -56,56 -90.6,133.3 -90.6,218.7 0,61.7 18,119.1 49.1,167.3 30.3,-49.8 74.7,-90.1 127.7,-115.3 39,-18.6 82.7,-29 128.8,-29 48.3,0 93.9,11.4 134.3,31.7 52.5,26.3 96.3,67.7 125.6,118.4 33.4,-49.4 52.9,-108.9 52.9,-173.1 0,-85.4 -34.6,-162.6 -90.5,-218.6 z M 351.1,383.4 c 9.2,-37.9 22.9,-74.7 40.6,-109.5 A 502.1,502.1 0 0 1 455.3,178 c 17.4,-20.6 36.4,-39.9 56.8,-57.5 20.4,17.6 39.4,36.9 56.8,57.5 24.8,29.5 46.2,61.8 63.6,95.9 17.7,34.8 31.4,71.6 40.6,109.5 8.7,35.8 13.5,72.7 14.2,109.9 C 637.4,459 577,438.9 512,438.9 c -65,0 -125.3,20.1 -175.1,54.4 0.7,-37.2 5.5,-74.1 14.2,-109.9 z m -90.6,449.2 c -9.1,-27 -13.7,-55.5 -13.7,-84.4 0,-35.8 7,-70.6 20.8,-103.2 8.4,-19.8 19,-38.4 31.9,-55.5 9.7,61.5 29.5,119.7 57.8,172.6 -36.4,17.8 -69,41.6 -96.8,70.5 z m 364.2,-85.3 c -0.7,-0.3 -1.5,-0.5 -2.2,-0.8 -0.4,-0.2 -0.9,-0.3 -1.3,-0.5 -0.6,-0.2 -1.3,-0.5 -1.9,-0.7 -0.8,-0.3 -1.5,-0.5 -2.3,-0.8 -0.8,-0.3 -1.5,-0.5 -2.3,-0.7 l -0.9,-0.3 c -1,-0.3 -2.1,-0.7 -3.1,-1 -1.2,-0.4 -2.4,-0.7 -3.5,-1.1 l -3,-0.9 c -0.2,-0.1 -0.4,-0.1 -0.7,-0.2 -1.1,-0.3 -2.3,-0.7 -3.4,-1 -1.2,-0.3 -2.4,-0.6 -3.5,-0.9 l -3.6,-0.9 -3.6,-0.9 c -1,-0.3 -2.1,-0.5 -3.1,-0.7 -1.2,-0.3 -2.4,-0.5 -3.6,-0.8 -1.3,-0.3 -2.5,-0.6 -3.8,-0.8 h -0.3 c -0.9,-0.2 -1.9,-0.4 -2.8,-0.6 -0.4,-0.1 -0.7,-0.1 -1.1,-0.2 -1.1,-0.2 -2.2,-0.4 -3.4,-0.6 -1.2,-0.2 -2.4,-0.4 -3.6,-0.7 l -5.4,-0.9 c -0.9,-0.1 -1.9,-0.3 -2.8,-0.4 -0.8,-0.1 -1.6,-0.3 -2.5,-0.4 -2.6,-0.4 -5.1,-0.7 -7.7,-1 -1.2,-0.1 -2.3,-0.3 -3.5,-0.4 h -0.4 c -0.9,-0.1 -1.8,-0.2 -2.8,-0.3 -1.1,-0.1 -2.1,-0.2 -3.2,-0.3 -1.7,-0.2 -3.4,-0.3 -5.1,-0.4 -0.8,-0.1 -1.5,-0.1 -2.3,-0.2 -0.9,-0.1 -1.9,-0.1 -2.8,-0.2 -0.4,0 -0.8,0 -1.2,-0.1 -1.1,-0.1 -2.1,-0.1 -3.2,-0.2 -0.5,0 -1,-0.1 -1.5,-0.1 -1.3,-0.1 -2.6,-0.1 -3.9,-0.1 -0.8,0 -1.5,-0.1 -2.3,-0.1 -1.2,0 -2.4,0 -3.5,-0.1 h -13.9 c -2.3,0 -4.6,0.1 -6.9,0.2 -0.9,0 -1.9,0.1 -2.8,0.1 -0.8,0 -1.5,0.1 -2.3,0.1 -1.4,0.1 -2.8,0.2 -4.1,0.3 -1.4,0.1 -2.7,0.2 -4.1,0.3 -1.4,0.1 -2.7,0.2 -4.1,0.4 -0.6,0 -1.2,0.1 -1.8,0.2 l -7.8,0.9 c -1.1,0.1 -2.1,0.3 -3.2,0.4 -1,0.1 -2.1,0.3 -3.1,0.4 -3.2,0.5 -6.4,0.9 -9.5,1.5 -0.7,0.1 -1.4,0.2 -2.1,0.4 -0.9,0.1 -1.7,0.3 -2.6,0.5 -1.1,0.2 -2.3,0.4 -3.4,0.6 -0.9,0.2 -1.7,0.3 -2.6,0.5 -0.4,0.1 -0.8,0.1 -1.1,0.2 -0.7,0.1 -1.4,0.3 -2.1,0.4 -1.2,0.3 -2.4,0.5 -3.6,0.8 -1.2,0.3 -2.4,0.5 -3.6,0.8 -0.2,0 -0.4,0.1 -0.6,0.1 -0.5,0.1 -1,0.2 -1.5,0.4 -1.1,0.3 -2.3,0.6 -3.5,0.9 -1.3,0.3 -2.5,0.6 -3.8,1 -0.4,0.1 -0.9,0.2 -1.4,0.4 -1.3,0.4 -2.7,0.7 -4,1.1 -1.5,0.4 -3,0.9 -4.6,1.3 -1,0.3 -2.1,0.6 -3.1,1 -2.1,0.6 -4.1,1.3 -6.2,2 -0.7,0.2 -1.4,0.5 -2.1,0.7 -15,-27.5 -27.4,-56.4 -37,-86.2 -11.7,-36.1 -19.2,-73.6 -22.5,-111.6 -0.6,-6.7 -1,-13.3 -1.3,-20 -0.1,-1.2 -0.1,-2.4 -0.1,-3.6 -0.1,-1.2 -0.1,-2.4 -0.1,-3.6 0,-1.2 -0.1,-2.4 -0.1,-3.6 0,-1.2 -0.1,-2.4 -0.1,-3.7 18.8,-14 39.2,-25.8 61,-35 36.1,-15.3 74.5,-23 114.1,-23 39.6,0 78,7.8 114.1,23 21.8,9.2 42.2,20.9 61,35 v 0.1 c 0,1 0,1.9 -0.1,2.9 0,1.4 -0.1,2.8 -0.1,4.3 0,0.7 0,1.3 -0.1,2 -0.1,1.8 -0.1,3.5 -0.2,5.3 -0.3,6.7 -0.8,13.3 -1.3,20 -3.3,38.5 -11,76.5 -23,113 -9.7,30.3 -22.3,59.4 -37.6,87.1 z m 136.8,90.9 A 342.27,342.27 0 0 0 665.2,765 c 29.1,-53.7 49.5,-112.8 59.4,-175.5 12.8,17.1 23.4,35.6 31.8,55.5 13.8,32.7 20.8,67.4 20.8,103.2 0,31 -5.3,61.3 -15.7,90 z"
         fill="#39393a"
         id="path4"
         style="fill:#cccccc" /><path
         d="m 512,819.3 c 8.7,0 24.7,22.9 24.7,60.4 0,37.5 -16,60.4 -24.7,60.4 -8.7,0 -24.7,-22.9 -24.7,-60.4 0,-37.5 16,-60.4 24.7,-60.4 m 0,-20 c -24.7,0 -44.7,36 -44.7,80.4 0,44.4 20,80.4 44.7,80.4 24.7,0 44.7,-36 44.7,-80.4 0,-44.4 -20,-80.4 -44.7,-80.4 z"
         fill="#e73b37"
         id="path5"
         style="fill:#2a7fff" /><g
         id="text1"
         style="font-size:235.885px;stroke-width:19.6571"
         aria-label="&#10;GreatOS"><path
           style="font-family:Uroob;-inkscape-font-specification:Uroob;text-align:center;text-anchor:middle"
           d="m 157.48714,1212.1769 q 11.53025,0 11.53025,8.6949 v 115.6806 h -32.88957 v -9.8291 q -11.34123,9.8291 -26.46287,9.8291 H 66.190232 q -17.389888,0 -29.676221,-11.1523 -12.286334,-11.1522 -12.286334,-27.975 v -163.1247 q 0,-17.2009 14.365559,-28.5421 14.36556,-11.3412 31.755447,-11.3412 h 57.084197 q 16.82282,0 29.10916,11.5302 12.09731,11.5303 12.09731,28.3531 v 15.4997 h -34.21271 q 0,-12.6644 -1.51217,-16.8228 -3.02433,-8.695 -13.42045,-8.695 H 72.616929 q -7.3718,0 -10.774169,4.7255 -3.40237,4.7255 -3.40237,11.5303 v 152.3505 q 0,14.1766 14.176539,14.1766 H 107.3967 q 10.77417,0 18.52401,-7.5609 7.74985,-7.5608 7.74985,-18.1459 v -36.292 h -30.62133 v -24.1946 q 0,-6.8047 3.40237,-7.9389 3.40237,-1.1341 6.80474,-0.756 z"
           id="path6" /><path
           style="font-size:387.114px;font-family:Uroob;-inkscape-font-specification:Uroob;text-align:center;text-anchor:middle"
           d="m 274.11279,1180.2324 -19.09107,-0.189 q -23.81659,0 -30.99937,17.2008 -2.45726,5.8597 -2.45726,13.4205 v 125.6986 h -32.32251 l -0.18902,-167.4721 q -8.3169,0 -8.3169,-6.2377 v -10.9632 h 37.23704 v 17.2009 q 2.64629,-7.5609 9.64004,-12.4754 6.99376,-4.9145 14.93262,-4.9145 h 31.56643 z m 141.19833,113.9794 q -0.56707,28.5421 -22.1154,38.9382 -7.18278,3.4024 -16.44479,3.4024 h -44.79786 q -16.82283,0 -27.78602,-12.0974 -11.15221,-12.0973 -11.15221,-29.1091 v -103.2052 q 0,-16.8228 10.20711,-28.9202 10.20711,-12.0973 26.84091,-12.0973 h 48.01121 q 16.82283,0 26.84092,12.8534 10.01808,12.8534 10.01808,30.0543 v 24.5727 q 0,16.6338 -9.262,28.5421 -9.26201,11.7192 -25.70679,11.7192 h -55.19399 v 34.2127 q 0,15.1217 15.31066,15.1217 h 28.73112 q 6.4267,0 10.20711,-3.5914 3.96943,-3.7804 3.78041,-10.3961 z m -75.23017,-113.7904 q -15.31066,0 -15.31066,15.8777 v 34.5908 h 41.39549 q 7.18278,0 12.09731,-3.9694 5.10356,-4.1585 5.10356,-11.9083 v -19.4691 q 0,-7.9389 -5.10356,-11.5303 -4.91453,-3.5914 -12.09731,-3.5914 z m 188.26443,15.8777 q 0,-15.8777 -15.31066,-15.8777 h -34.40174 q -5.67061,0 -8.88396,3.5914 -3.02433,3.4024 -3.21335,8.884 h -32.51153 q 0.37804,-17.2009 11.15221,-29.1092 10.77417,-11.9083 27.40798,-11.9083 h 50.46847 q 16.25577,0 26.6519,11.7193 10.39612,11.7193 10.39612,28.5421 v 144.4117 H 528.5344 v -7.3718 q -10.20711,7.9388 -20.03618,7.9388 h -30.99936 q -17.20087,0 -31.18839,-11.1522 -13.98751,-11.1522 -13.98751,-27.408 v -35.9139 q 0,-16.6338 13.98751,-27.786 13.98752,-11.1522 31.18839,-11.1522 h 36.66998 q 7.56082,0 14.17654,4.1585 z m -0.56706,96.0225 v -23.4386 q 0,-7.1828 -4.15845,-12.0973 -3.96944,-5.1036 -11.71928,-5.1036 h -32.13348 q -7.93887,0 -11.53026,5.1036 -3.59139,4.9145 -3.59139,12.0973 v 23.4386 q 0,7.1827 3.59139,12.2863 3.59139,4.9145 11.53026,4.9145 h 32.13348 q 7.74984,0 11.71928,-4.9145 4.15845,-5.1036 4.15845,-12.2863 z m 96.40047,5.1035 q 0,13.9875 15.12164,13.9875 15.31066,0 17.01185,-15.8777 h 6.99375 v 34.2127 q -12.47535,11.3413 -29.10915,11.3413 -31.18839,0 -41.01746,-23.4386 -3.21335,-7.5608 -3.21335,-17.9569 v -113.2233 h -13.79849 v -28.5421 h 13.79849 v -36.1029 h 34.21272 v 36.1029 h 26.08483 v 28.5421 h -26.08483 z"
           id="path7" /><path
           style="font-size:387.114px;font-family:Uroob;-inkscape-font-specification:Uroob;text-align:center;text-anchor:middle;fill:#2a7fff"
           d="m 819.05895,1289.2972 q 0,19.4691 -14.36556,33.4567 -14.36556,13.7985 -34.40173,13.7985 h -37.80411 q -20.22519,0 -34.96879,-13.6095 -14.93262,-13.6095 -14.93262,-33.6457 v -147.436 q 0,-20.2252 14.93262,-33.8346 14.93262,-13.6095 34.96879,-13.6095 h 37.80411 q 19.84715,0 34.40173,13.7985 14.36556,13.7985 14.36556,33.6456 z m -34.21271,-6.2376 v -134.9607 q 0,-15.3107 -10.58515,-21.7374 -3.40237,-2.2682 -8.12789,-2.0792 h -31.3774 q -8.12788,0 -13.04242,7.1828 -4.91453,7.1828 -4.91453,16.6338 v 134.9607 q 0,14.9326 10.01809,21.5483 3.40237,2.2682 7.93886,2.2682 h 31.3774 q 8.69495,0 13.7985,-7.3718 4.91454,-7.3718 4.91454,-16.4447 z m 103.20515,-158.0212 q -14.36556,0 -14.36556,14.9326 v 46.4991 q 0,14.1765 14.36556,14.1765 h 50.09044 q 17.01184,0 27.40797,12.0973 10.58515,12.0973 10.58515,28.9202 v 52.9257 q 0,17.3899 -11.34123,29.8652 -11.34123,12.2864 -28.5421,12.2864 h -58.59636 q -18.52401,0 -28.92014,-11.9083 -10.58515,-11.9083 -10.58515,-30.4323 h 32.51153 q -0.37804,6.6157 3.21335,9.451 3.78041,2.6463 9.82907,2.6463 h 44.41982 q 14.36556,0 14.36556,-14.1765 v -46.4991 q 0,-14.7436 -14.36556,-14.7436 h -48.20023 q -17.20087,0 -28.5421,-12.4753 -11.34123,-12.4754 -11.34123,-29.8653 v -52.9257 q 0,-17.0119 10.58515,-29.1092 10.58515,-12.0973 27.40797,-12.0973 h 58.59636 q 17.38989,0 27.597,11.5303 10.01808,11.5302 10.01808,29.4872 h -32.51152 q 0.37804,-10.5852 -13.04242,-10.5852 z"
           id="path8" /></g></g></g></svg>
